# xmcd CD database file
#
# Track frame offsets:
#	150
#	20548
#	33652
#	52447
#	73154
#	87839
#	103111
#	111509
#	130855
#	141999
#	156223
#	171668
#
# Disc length: 2706 seconds
#
# Revision: 0
# Processed by: cddbd v1.5.1PL2 Copyright (c) Steve Scherf et al.
# Submitted via: CDex 1.51
#
DISCID=bc0a900c
DTITLE=Napam Death - Words from the Exit Wound
DYEAR=1999
DGENRE=Grind Core
TTITLE0=The Infiltraitor
TTITLE1=Repression Out of Uniform
TTITLE2=Next of Kin to Chaos
TTITLE3=Trio-Degradable/Affixed by Disconcern
TTITLE4=Cleanse Impure
TTITLE5=Devouring Depraved
TTITLE6=Ulterior Exterior
TTITLE7=None the Wiser?
TTITLE8=Clutching at Barbs
TTITLE9=Incendiary Incoming
TTITLE10=Thrown Down a Rope
TTITLE11=Sceptic in Perspective
EXTD=YEAR: 1999
EXTT0=
EXTT1=
EXTT2=
EXTT3=
EXTT4=
EXTT5=
EXTT6=
EXTT7=
EXTT8=
EXTT9=
EXTT10=
EXTT11=
PLAYORDER=
